<svg width="2512pt" height="548pt" viewBox="0.00 0.00 2512.42 548.00" xmlns="http://www.w3.org/2000/svg" xmlns:xlink="http://www.w3.org/1999/xlink">
<g id="graph1" class="graph" transform="scale(1 1) rotate(0) translate(4 544)">
<title>G</title>
<polygon fill="white" stroke="white" points="-4,5 -4,-544 2509.42,-544 2509.42,5 -4,5"></polygon>
<!-- Open Cloud -->
<g id="node1" class="node"><title>Open Cloud</title>
<ellipse fill="none" stroke="black" cx="978.42" cy="-522" rx="57.4628" ry="18"></ellipse>
<text text-anchor="middle" x="978.42" y="-517.8" font-family="Times,serif" font-size="14.00">Open Cloud</text>
</g>
<!-- App Plat -->
<g id="node4" class="node"><title>App Plat</title>
<ellipse fill="none" stroke="black" cx="330.42" cy="-450" rx="45.1522" ry="18"></ellipse>
<text text-anchor="middle" x="330.42" y="-445.8" font-family="Times,serif" font-size="14.00">App Plat</text>
</g>
<!-- Open Cloud&#45;&#45;App Plat -->
<g id="edge3" class="edge"><title>Open Cloud--App Plat</title>
<path fill="none" stroke="black" d="M925.116,-515.242C799.627,-501.686 487.556,-467.975 373.252,-455.627"></path>
</g>
<!-- Cloud vendors -->
<g id="node5" class="node"><title>Cloud vendors</title>
<ellipse fill="none" stroke="black" cx="602.42" cy="-450" rx="67.4462" ry="18"></ellipse>
<text text-anchor="middle" x="602.42" y="-445.8" font-family="Times,serif" font-size="14.00">Cloud vendors</text>
</g>
<!-- Open Cloud&#45;&#45;Cloud vendors -->
<g id="edge4" class="edge"><title>Open Cloud--Cloud vendors</title>
<path fill="none" stroke="black" d="M930.417,-512.063C860.036,-498.96 729.263,-474.614 655.893,-460.955"></path>
</g>
<!-- Data Plat -->
<g id="node6" class="node"><title>Data Plat</title>
<ellipse fill="none" stroke="black" cx="898.42" cy="-450" rx="46.5517" ry="18"></ellipse>
<text text-anchor="middle" x="898.42" y="-445.8" font-family="Times,serif" font-size="14.00">Data Plat</text>
</g>
<!-- Open Cloud&#45;&#45;Data Plat -->
<g id="edge5" class="edge"><title>Open Cloud--Data Plat</title>
<path fill="none" stroke="black" d="M959.865,-504.765C946.756,-493.294 929.285,-478.007 916.324,-466.666"></path>
</g>
<!-- Open in the enterprise -->
<g id="node7" class="node"><title>Open in the enterprise</title>
<ellipse fill="none" stroke="black" cx="1059.42" cy="-450" rx="96.3621" ry="18"></ellipse>
<text text-anchor="middle" x="1059.42" y="-445.8" font-family="Times,serif" font-size="14.00">Open in the enterprise</text>
</g>
<!-- Open Cloud&#45;&#45;Open in the enterprise -->
<g id="edge6" class="edge"><title>Open Cloud--Open in the enterprise</title>
<path fill="none" stroke="black" d="M997.207,-504.765C1010.01,-493.698 1026.93,-479.079 1039.89,-467.878"></path>
</g>
<!-- Next&#45;gen infrastructure -->
<g id="node8" class="node"><title>Next-gen infrastructure</title>
<ellipse fill="none" stroke="black" cx="1392.42" cy="-450" rx="101.086" ry="18"></ellipse>
<text text-anchor="middle" x="1392.42" y="-445.8" font-family="Times,serif" font-size="14.00">Next-gen infrastructure</text>
</g>
<!-- Open Cloud&#45;&#45;Next&#45;gen infrastructure -->
<g id="edge7" class="edge"><title>Open Cloud--Next-gen infrastructure</title>
<path fill="none" stroke="black" d="M1027.95,-512.626C1101.03,-500.269 1238.1,-477.092 1321.73,-462.952"></path>
</g>
<!-- Languages -->
<g id="node9" class="node"><title>Languages</title>
<ellipse fill="none" stroke="black" cx="1999.42" cy="-450" rx="52.2998" ry="18"></ellipse>
<text text-anchor="middle" x="1999.42" y="-445.8" font-family="Times,serif" font-size="14.00">Languages</text>
</g>
<!-- Open Cloud&#45;&#45;Languages -->
<g id="edge8" class="edge"><title>Open Cloud--Languages</title>
<path fill="none" stroke="black" d="M1034.04,-517.187C1213.5,-504.883 1775.53,-466.35 1948.35,-454.502"></path>
</g>
<!-- Serverless -->
<g id="node12" class="node"><title>Serverless</title>
<ellipse fill="none" stroke="black" cx="391.42" cy="-378" rx="50.5762" ry="18"></ellipse>
<text text-anchor="middle" x="391.42" y="-373.8" font-family="Times,serif" font-size="14.00">Serverless</text>
</g>
<!-- App Plat&#45;&#45;Serverless -->
<g id="edge11" class="edge"><title>App Plat--Serverless</title>
<path fill="none" stroke="black" d="M344.568,-432.765C354.282,-421.618 367.138,-406.865 376.925,-395.633"></path>
</g>
<!-- Containers -->
<g id="node13" class="node"><title>Containers</title>
<ellipse fill="none" stroke="black" cx="269.42" cy="-378" rx="52.3113" ry="18"></ellipse>
<text text-anchor="middle" x="269.42" y="-373.8" font-family="Times,serif" font-size="14.00">Containers</text>
</g>
<!-- App Plat&#45;&#45;Containers -->
<g id="edge12" class="edge"><title>App Plat--Containers</title>
<path fill="none" stroke="black" d="M316.272,-432.765C306.558,-421.618 293.702,-406.865 283.915,-395.633"></path>
</g>
<!-- Platforms -->
<g id="node14" class="node"><title>Platforms</title>
<ellipse fill="none" stroke="black" cx="104.42" cy="-378" rx="48.3766" ry="18"></ellipse>
<text text-anchor="middle" x="104.42" y="-373.8" font-family="Times,serif" font-size="14.00">Platforms</text>
</g>
<!-- App Plat&#45;&#45;Platforms -->
<g id="edge13" class="edge"><title>App Plat--Platforms</title>
<path fill="none" stroke="black" d="M295.603,-438.216C253.505,-425.177 183.011,-403.342 140.398,-390.144"></path>
</g>
<!-- Oracle announcements -->
<g id="node20" class="node"><title>Oracle announcements</title>
<ellipse fill="none" stroke="black" cx="569.42" cy="-234" rx="99.375" ry="18"></ellipse>
<text text-anchor="middle" x="569.42" y="-229.8" font-family="Times,serif" font-size="14.00">Oracle announcements</text>
</g>
<!-- Cloud vendors&#45;&#45;Oracle announcements -->
<g id="edge47" class="edge"><title>Cloud vendors--Oracle announcements</title>
<path fill="none" stroke="black" d="M599.775,-431.849C593.596,-391.78 578.269,-292.383 572.077,-252.232"></path>
</g>
<!-- Multi&#45;cloud -->
<g id="node44" class="node"><title>Multi-cloud</title>
<ellipse fill="none" stroke="black" cx="517.42" cy="-378" rx="57.2562" ry="18"></ellipse>
<text text-anchor="middle" x="517.42" y="-373.8" font-family="Times,serif" font-size="14.00">Multi-cloud</text>
</g>
<!-- Cloud vendors&#45;&#45;Multi&#45;cloud -->
<g id="edge48" class="edge"><title>Cloud vendors--Multi-cloud</title>
<path fill="none" stroke="black" d="M582.706,-432.765C568.974,-421.456 550.736,-406.437 537.027,-395.147"></path>
</g>
<!-- GSA response -->
<g id="node47" class="node"><title>GSA response</title>
<ellipse fill="none" stroke="black" cx="650.42" cy="-162" rx="66.3197" ry="18"></ellipse>
<text text-anchor="middle" x="650.42" y="-157.8" font-family="Times,serif" font-size="14.00">GSA response</text>
</g>
<!-- Open in the enterprise&#45;&#45;GSA response -->
<g id="edge63" class="edge"><title>Open in the enterprise--GSA response</title>
<path fill="none" stroke="black" stroke-dasharray="1,5" d="M1143.27,-441.022C1260.33,-429.479 1459.72,-408.173 1470.42,-396 1480.99,-383.985 1480.32,-372.566 1470.42,-360 1375.54,-239.623 887.35,-184.376 712.671,-168.245"></path>
</g>
<!-- BNY Mellon -->
<g id="node50" class="node"><title>BNY Mellon</title>
<ellipse fill="none" stroke="black" cx="692.42" cy="-378" rx="61.5926" ry="18"></ellipse>
<text text-anchor="middle" x="692.42" y="-373.8" font-family="Times,serif" font-size="14.00">BNY Mellon</text>
</g>
<!-- Open in the enterprise&#45;&#45;BNY Mellon -->
<g id="edge55" class="edge"><title>Open in the enterprise--BNY Mellon</title>
<path fill="none" stroke="black" d="M988.974,-437.686C928.646,-427.697 839.558,-412.233 762.42,-396 754.343,-394.3 745.778,-392.347 737.513,-390.384"></path>
</g>
<!-- Home Depot -->
<g id="node51" class="node"><title>Home Depot</title>
<a xlink:href="https://goo.gl/dngUDk" xlink:title="Home Depot">
<ellipse fill="none" stroke="black" cx="832.42" cy="-378" rx="60.4717" ry="18"></ellipse>
<text text-anchor="middle" x="832.42" y="-373.8" font-family="Times,serif" font-size="14.00">Home Depot</text>
</a>
</g>
<!-- Open in the enterprise&#45;&#45;Home Depot -->
<g id="edge56" class="edge"><title>Open in the enterprise--Home Depot</title>
<path fill="none" stroke="black" d="M1011.83,-434.326C970.621,-421.617 911.666,-403.437 872.736,-391.432"></path>
</g>
<!-- SAP -->
<g id="node52" class="node"><title>SAP</title>
<ellipse fill="none" stroke="black" cx="939.42" cy="-378" rx="28.6156" ry="18"></ellipse>
<text text-anchor="middle" x="939.42" y="-373.8" font-family="Times,serif" font-size="14.00">SAP</text>
</g>
<!-- Open in the enterprise&#45;&#45;SAP -->
<g id="edge57" class="edge"><title>Open in the enterprise--SAP</title>
<path fill="none" stroke="black" d="M1031.59,-432.765C1009.57,-419.921 979.349,-402.292 959.607,-390.776"></path>
</g>
<!-- GSA -->
<g id="node53" class="node"><title>GSA</title>
<ellipse fill="none" stroke="black" cx="1016.42" cy="-378" rx="30.0229" ry="18"></ellipse>
<text text-anchor="middle" x="1016.42" y="-373.8" font-family="Times,serif" font-size="14.00">GSA</text>
</g>
<!-- Open in the enterprise&#45;&#45;GSA -->
<g id="edge58" class="edge"><title>Open in the enterprise--GSA</title>
<path fill="none" stroke="black" d="M1049.01,-432.055C1042.15,-420.887 1033.22,-406.343 1026.44,-395.307"></path>
</g>
<!-- BBVA -->
<g id="node54" class="node"><title>BBVA</title>
<ellipse fill="none" stroke="black" cx="1102.42" cy="-378" rx="37.2916" ry="18"></ellipse>
<text text-anchor="middle" x="1102.42" y="-373.8" font-family="Times,serif" font-size="14.00">BBVA</text>
</g>
<!-- Open in the enterprise&#45;&#45;BBVA -->
<g id="edge59" class="edge"><title>Open in the enterprise--BBVA</title>
<path fill="none" stroke="black" d="M1069.83,-432.055C1076.59,-421.049 1085.37,-406.764 1092.11,-395.789"></path>
</g>
<!-- Federal Reserve -->
<g id="node55" class="node"><title>Federal Reserve</title>
<ellipse fill="none" stroke="black" cx="1231.42" cy="-378" rx="73.258" ry="18"></ellipse>
<text text-anchor="middle" x="1231.42" y="-373.8" font-family="Times,serif" font-size="14.00">Federal Reserve</text>
</g>
<!-- Open in the enterprise&#45;&#45;Federal Reserve -->
<g id="edge60" class="edge"><title>Open in the enterprise--Federal Reserve</title>
<path fill="none" stroke="black" d="M1097.59,-433.465C1126.69,-421.623 1166.5,-405.422 1195.12,-393.773"></path>
</g>
<!-- Deutsche Bank -->
<g id="node56" class="node"><title>Deutsche Bank</title>
<ellipse fill="none" stroke="black" cx="1392.42" cy="-378" rx="69.1456" ry="18"></ellipse>
<text text-anchor="middle" x="1392.42" y="-373.8" font-family="Times,serif" font-size="14.00">Deutsche Bank</text>
</g>
<!-- Open in the enterprise&#45;&#45;Deutsche Bank -->
<g id="edge61" class="edge"><title>Open in the enterprise--Deutsche Bank</title>
<path fill="none" stroke="black" d="M1121.29,-436.202C1172.74,-425.534 1247.87,-409.892 1313.42,-396 1322.34,-394.109 1331.82,-392.083 1341.01,-390.112"></path>
</g>
<!-- Linux -->
<g id="node60" class="node"><title>Linux</title>
<ellipse fill="none" stroke="black" cx="1582.42" cy="-378" rx="34.1577" ry="18"></ellipse>
<text text-anchor="middle" x="1582.42" y="-373.8" font-family="Times,serif" font-size="14.00">Linux</text>
</g>
<!-- Next&#45;gen infrastructure&#45;&#45;Linux -->
<g id="edge66" class="edge"><title>Next-gen infrastructure--Linux</title>
<path fill="none" stroke="black" d="M1434.59,-433.465C1471.43,-419.891 1523.82,-400.59 1555.33,-388.982"></path>
</g>
<!-- Java -->
<g id="node65" class="node"><title>Java</title>
<ellipse fill="none" stroke="black" cx="2082.42" cy="-378" rx="28.2917" ry="18"></ellipse>
<text text-anchor="middle" x="2082.42" y="-373.8" font-family="Times,serif" font-size="14.00">Java</text>
</g>
<!-- Languages&#45;&#45;Java -->
<g id="edge71" class="edge"><title>Languages--Java</title>
<path fill="none" stroke="black" d="M2018.25,-433.116C2032.7,-420.934 2052.43,-404.295 2066.18,-392.695"></path>
</g>
<!-- Node.js -->
<g id="node66" class="node"><title>Node.js</title>
<ellipse fill="none" stroke="black" cx="2308.42" cy="-378" rx="40.2103" ry="18"></ellipse>
<text text-anchor="middle" x="2308.42" y="-373.8" font-family="Times,serif" font-size="14.00">Node.js</text>
</g>
<!-- Languages&#45;&#45;Node.js -->
<g id="edge72" class="edge"><title>Languages--Node.js</title>
<path fill="none" stroke="black" d="M2042.06,-439.34C2103.48,-425.426 2215.75,-399.994 2272.92,-387.042"></path>
</g>
<!-- Python -->
<g id="node67" class="node"><title>Python</title>
<ellipse fill="none" stroke="black" cx="1916.42" cy="-378" rx="38.1043" ry="18"></ellipse>
<text text-anchor="middle" x="1916.42" y="-373.8" font-family="Times,serif" font-size="14.00">Python</text>
</g>
<!-- Languages&#45;&#45;Python -->
<g id="edge73" class="edge"><title>Languages--Python</title>
<path fill="none" stroke="black" d="M1980.59,-433.116C1966.72,-421.418 1947.97,-405.61 1934.33,-394.101"></path>
</g>
<!-- Fn -->
<g id="node17" class="node"><title>Fn</title>
<ellipse fill="none" stroke="black" cx="537.42" cy="-306" rx="27" ry="18"></ellipse>
<text text-anchor="middle" x="537.42" y="-301.8" font-family="Times,serif" font-size="14.00">Fn</text>
</g>
<!-- Serverless&#45;&#45;Fn -->
<g id="edge16" class="edge"><title>Serverless--Fn</title>
<path fill="none" stroke="black" d="M420.265,-363.17C448.52,-349.623 490.912,-329.298 516.205,-317.172"></path>
</g>
<!-- OpenWhisk -->
<g id="node18" class="node"><title>OpenWhisk</title>
<ellipse fill="none" stroke="black" cx="426.42" cy="-306" rx="57.2446" ry="18"></ellipse>
<text text-anchor="middle" x="426.42" y="-301.8" font-family="Times,serif" font-size="14.00">OpenWhisk</text>
</g>
<!-- Serverless&#45;&#45;OpenWhisk -->
<g id="edge17" class="edge"><title>Serverless--OpenWhisk</title>
<path fill="none" stroke="black" d="M399.893,-360.055C405.314,-349.211 412.328,-335.183 417.782,-324.275"></path>
</g>
<!-- CRI -->
<g id="node23" class="node"><title>CRI</title>
<a xlink:href="https://goo.gl/sooM9e" xlink:title="CRI">
<ellipse fill="none" stroke="black" cx="324.42" cy="-306" rx="27.1979" ry="18"></ellipse>
<text text-anchor="middle" x="324.42" y="-301.8" font-family="Times,serif" font-size="14.00">CRI</text>
</a>
</g>
<!-- Containers&#45;&#45;CRI -->
<g id="edge22" class="edge"><title>Containers--CRI</title>
<path fill="none" stroke="black" d="M282.454,-360.411C291.476,-348.929 303.401,-333.751 312.233,-322.511"></path>
</g>
<!-- Kubernetes -->
<g id="node24" class="node"><title>Kubernetes</title>
<ellipse fill="none" stroke="black" cx="239.42" cy="-90" rx="55.0112" ry="18"></ellipse>
<text text-anchor="middle" x="239.42" y="-85.8" font-family="Times,serif" font-size="14.00">Kubernetes</text>
</g>
<!-- Containers&#45;&#45;Kubernetes -->
<g id="edge23" class="edge"><title>Containers--Kubernetes</title>
<path fill="none" stroke="black" d="M268.751,-359.963C267.078,-321.362 261.988,-224.343 250.42,-144 248.679,-131.908 245.87,-118.43 243.526,-108.091"></path>
</g>
<!-- CF -->
<g id="node31" class="node"><title>CF</title>
<ellipse fill="none" stroke="black" cx="104.42" cy="-306" rx="27" ry="18"></ellipse>
<text text-anchor="middle" x="104.42" y="-301.8" font-family="Times,serif" font-size="14.00">CF</text>
</g>
<!-- Platforms&#45;&#45;CF -->
<g id="edge30" class="edge"><title>Platforms--CF</title>
<path fill="none" stroke="black" d="M104.42,-359.697C104.42,-348.846 104.42,-334.917 104.42,-324.104"></path>
</g>
<!-- OpenShift -->
<g id="node32" class="node"><title>OpenShift</title>
<ellipse fill="none" stroke="black" cx="58.42" cy="-162" rx="50.595" ry="18"></ellipse>
<text text-anchor="middle" x="58.42" y="-157.8" font-family="Times,serif" font-size="14.00">OpenShift</text>
</g>
<!-- Platforms&#45;&#45;OpenShift -->
<g id="edge31" class="edge"><title>Platforms--OpenShift</title>
<path fill="none" stroke="black" d="M85.5564,-361.16C61.3374,-339.454 20.5185,-297.893 4.42,-252 -0.876113,-236.902 -1.77194,-230.753 4.42,-216 10.8253,-200.738 24.0068,-187.661 35.7425,-178.314"></path>
</g>
<!-- Fn&#45;&#45;Oracle announcements -->
<g id="edge19" class="edge"><title>Fn--Oracle announcements</title>
<path fill="none" stroke="black" stroke-dasharray="1,5" d="M545.004,-288.411C550.031,-277.414 556.607,-263.027 561.669,-251.956"></path>
</g>
<!-- Oracle announcements&#45;&#45;Kubernetes -->
<g id="edge50" class="edge"><title>Oracle announcements--Kubernetes</title>
<path fill="none" stroke="black" stroke-dasharray="1,5" d="M532.843,-217.261C467.732,-189.244 332.798,-131.181 271.258,-104.7"></path>
</g>
<!-- Oracle announcements&#45;&#45;GSA response -->
<g id="edge52" class="edge"><title>Oracle announcements--GSA response</title>
<path fill="none" stroke="black" d="M589.028,-216.055C601.95,-204.887 618.781,-190.343 631.55,-179.307"></path>
</g>
<!-- Support in Docker -->
<g id="node27" class="node"><title>Support in Docker</title>
<ellipse fill="none" stroke="black" cx="167.42" cy="-18" rx="82.0619" ry="18"></ellipse>
<text text-anchor="middle" x="167.42" y="-13.8" font-family="Times,serif" font-size="14.00">Support in Docker</text>
</g>
<!-- Kubernetes&#45;&#45;Support in Docker -->
<g id="edge26" class="edge"><title>Kubernetes--Support in Docker</title>
<path fill="none" stroke="black" d="M222.721,-72.7646C211.255,-61.6175 196.081,-46.865 184.529,-35.6334"></path>
</g>
<!-- Rancher -->
<g id="node28" class="node"><title>Rancher</title>
<ellipse fill="none" stroke="black" cx="311.42" cy="-18" rx="43.3134" ry="18"></ellipse>
<text text-anchor="middle" x="311.42" y="-13.8" font-family="Times,serif" font-size="14.00">Rancher</text>
</g>
<!-- Kubernetes&#45;&#45;Rancher -->
<g id="edge27" class="edge"><title>Kubernetes--Rancher</title>
<path fill="none" stroke="black" d="M256.119,-72.7646C267.751,-61.456 283.199,-46.4367 294.811,-35.1473"></path>
</g>
<!-- Kubo -->
<g id="node36" class="node"><title>Kubo</title>
<ellipse fill="none" stroke="black" cx="209.42" cy="-162" rx="32.24" ry="18"></ellipse>
<text text-anchor="middle" x="209.42" y="-157.8" font-family="Times,serif" font-size="14.00">Kubo</text>
</g>
<!-- CF&#45;&#45;Kubo -->
<g id="edge36" class="edge"><title>CF--Kubo</title>
<path fill="none" stroke="black" d="M130.172,-300.425C156.029,-294.312 194.525,-280.716 212.42,-252 226.075,-230.088 220.638,-198.89 215.207,-179.846"></path>
</g>
<!-- rootless -->
<g id="node37" class="node"><title>rootless</title>
<ellipse fill="none" stroke="black" cx="162.42" cy="-234" rx="41.1103" ry="18"></ellipse>
<text text-anchor="middle" x="162.42" y="-229.8" font-family="Times,serif" font-size="14.00">rootless</text>
</g>
<!-- CF&#45;&#45;rootless -->
<g id="edge37" class="edge"><title>CF--rootless</title>
<path fill="none" stroke="black" d="M117.005,-289.811C126.467,-278.391 139.405,-262.776 149.052,-251.134"></path>
</g>
<!-- OSBAPI -->
<g id="node38" class="node"><title>OSBAPI</title>
<a xlink:href="https://goo.gl/px99bG" xlink:title="OSBAPI">
<ellipse fill="none" stroke="black" cx="58.42" cy="-234" rx="45.0571" ry="18"></ellipse>
<text text-anchor="middle" x="58.42" y="-229.8" font-family="Times,serif" font-size="14.00">OSBAPI</text>
</a>
</g>
<!-- CF&#45;&#45;OSBAPI -->
<g id="edge38" class="edge"><title>CF--OSBAPI</title>
<path fill="none" stroke="black" d="M89.5626,-290.834C80.7356,-279.649 70.3357,-263.999 63.7696,-252.113"></path>
</g>
<!-- OpenShift&#45;&#45;Kubernetes -->
<g id="edge33" class="edge"><title>OpenShift--Kubernetes</title>
<path fill="none" stroke="black" stroke-dasharray="1,5" d="M91.1977,-148.324C123.492,-135.834 172.615,-116.836 205.35,-104.176"></path>
</g>
<!-- Kubo&#45;&#45;Kubernetes -->
<g id="edge40" class="edge"><title>Kubo--Kubernetes</title>
<path fill="none" stroke="black" stroke-dasharray="1,5" d="M216.53,-144.411C221.243,-133.414 227.408,-119.027 232.153,-107.956"></path>
</g>
<!-- OSBAPI&#45;&#45;CF -->
<g id="edge43" class="edge"><title>OSBAPI--CF</title>
<path fill="none" stroke="black" stroke-dasharray="1,5" d="M74.5767,-250.829C83.1498,-261.92 92.9201,-276.726 99.1629,-288.055"></path>
</g>
<!-- OSBAPI&#45;&#45;OpenShift -->
<g id="edge44" class="edge"><title>OSBAPI--OpenShift</title>
<path fill="none" stroke="black" stroke-dasharray="1,5" d="M58.42,-215.697C58.42,-204.846 58.42,-190.917 58.42,-180.104"></path>
</g>
<!-- AppArmor in Debian -->
<g id="node62" class="node"><title>AppArmor in Debian</title>
<ellipse fill="none" stroke="black" cx="1612.42" cy="-306" rx="93.4483" ry="18"></ellipse>
<text text-anchor="middle" x="1612.42" y="-301.8" font-family="Times,serif" font-size="14.00">AppArmor in Debian</text>
</g>
<!-- Linux&#45;&#45;AppArmor in Debian -->
<g id="edge68" class="edge"><title>Linux--AppArmor in Debian</title>
<path fill="none" stroke="black" d="M1589.68,-360.055C1594.33,-349.211 1600.34,-335.183 1605.02,-324.275"></path>
</g>
<!-- OpenJ9 -->
<g id="node70" class="node"><title>OpenJ9</title>
<ellipse fill="none" stroke="black" cx="2141.42" cy="-306" rx="40.3032" ry="18"></ellipse>
<text text-anchor="middle" x="2141.42" y="-301.8" font-family="Times,serif" font-size="14.00">OpenJ9</text>
</g>
<!-- Java&#45;&#45;OpenJ9 -->
<g id="edge76" class="edge"><title>Java--OpenJ9</title>
<path fill="none" stroke="black" d="M2095.22,-361.811C2104.85,-350.391 2118.01,-334.776 2127.82,-323.134"></path>
</g>
<!-- Eclipse Foundation -->
<g id="node71" class="node"><title>Eclipse Foundation</title>
<ellipse fill="none" stroke="black" cx="2285.42" cy="-306" rx="85.3031" ry="18"></ellipse>
<text text-anchor="middle" x="2285.42" y="-301.8" font-family="Times,serif" font-size="14.00">Eclipse Foundation</text>
</g>
<!-- Java&#45;&#45;Eclipse Foundation -->
<g id="edge77" class="edge"><title>Java--Eclipse Foundation</title>
<path fill="none" stroke="black" d="M2106.5,-368.695C2140.11,-357.106 2201.6,-335.904 2242.99,-321.632"></path>
</g>
<!-- Spring Boot -->
<g id="node72" class="node"><title>Spring Boot</title>
<ellipse fill="none" stroke="black" cx="2024.42" cy="-306" rx="57.4758" ry="18"></ellipse>
<text text-anchor="middle" x="2024.42" y="-301.8" font-family="Times,serif" font-size="14.00">Spring Boot</text>
</g>
<!-- Java&#45;&#45;Spring Boot -->
<g id="edge78" class="edge"><title>Java--Spring Boot</title>
<path fill="none" stroke="black" d="M2069.83,-361.811C2060.51,-350.552 2047.8,-335.215 2038.2,-323.628"></path>
</g>
<!-- Governance -->
<g id="node75" class="node"><title>Governance</title>
<ellipse fill="none" stroke="black" cx="2447.42" cy="-306" rx="57.5246" ry="18"></ellipse>
<text text-anchor="middle" x="2447.42" y="-301.8" font-family="Times,serif" font-size="14.00">Governance</text>
</g>
<!-- Node.js&#45;&#45;Governance -->
<g id="edge81" class="edge"><title>Node.js--Governance</title>
<path fill="none" stroke="black" d="M2334.24,-363.998C2358.11,-351.978 2393.53,-334.138 2418.38,-321.626"></path>
</g>
<!-- Data Science vs. The Rest -->
<g id="node78" class="node"><title>Data Science vs. The Rest</title>
<ellipse fill="none" stroke="black" cx="1836.42" cy="-306" rx="112.193" ry="18"></ellipse>
<text text-anchor="middle" x="1836.42" y="-301.8" font-family="Times,serif" font-size="14.00">Data Science vs. The Rest</text>
</g>
<!-- Python&#45;&#45;Data Science vs. The Rest -->
<g id="edge84" class="edge"><title>Python--Data Science vs. The Rest</title>
<path fill="none" stroke="black" d="M1899.06,-361.811C1886.29,-350.633 1868.92,-335.434 1855.71,-323.877"></path>
</g>
</g>
</svg>
